inDegrees=no
num_controls=7
num_derivatives=13
num_iterations=65
num_multipliers=7
num_parameters=0
num_slacks=7
num_states=26
objective=0.312895
objective_accelerations=0.000898
objective_balance=0.001629
objective_effort=0.004946
objective_height=0.299782
objective_ligament=0.005639
solver_duration=696.357364
status=Solve_Succeeded
success=true
DataType=double
version=3
OpenSimVersion=4.5
endheader
time	/jointset/ground_pelvis/pelvis_tilt/value	/jointset/ground_pelvis/pelvis_tx/value	/jointset/ground_pelvis/pelvis_ty/value	/jointset/hip_r/hip_flexion_r/value	/jointset/hip_r/hip_adduction_r/value	/jointset/hip_r/hip_rotation_r/value	/jointset/back/lumbar_extension/value	/jointset/patellofemoral_r/patellar_flexion_r/value	/jointset/knee_r/knee_flexion_r/value	/jointset/knee_r/knee_adduction_r/value	/jointset/knee_r/knee_rotation_r/value	/jointset/ankle_r/ankle_angle_r/value	/jointset/subtalar_r/subtalar_angle_r/value	/jointset/ground_pelvis/pelvis_tilt/speed	/jointset/ground_pelvis/pelvis_tx/speed	/jointset/ground_pelvis/pelvis_ty/speed	/jointset/hip_r/hip_flexion_r/speed	/jointset/hip_r/hip_adduction_r/speed	/jointset/hip_r/hip_rotation_r/speed	/jointset/back/lumbar_extension/speed	/jointset/patellofemoral_r/patellar_flexion_r/speed	/jointset/knee_r/knee_flexion_r/speed	/jointset/knee_r/knee_adduction_r/speed	/jointset/knee_r/knee_rotation_r/speed	/jointset/ankle_r/ankle_angle_r/speed	/jointset/subtalar_r/subtalar_angle_r/speed	/forceset/tau_hip_flexion_r	/forceset/tau_hip_adduction_r	/forceset/tau_hip_rotation_r	/forceset/tau_knee_flexion_r	/forceset/tau_ankle_angle_r	/forceset/tau_subtalar_angle_r	/forceset/tau_lumbar_extension	lambda_cid13_p0	lambda_cid14_p0	lambda_cid14_p1	lambda_cid14_p2	lambda_cid14_p3	lambda_cid14_p4	lambda_cid14_p5	/jointset/ground_pelvis/pelvis_tilt/accel	/jointset/ground_pelvis/pelvis_tx/accel	/jointset/ground_pelvis/pelvis_ty/accel	/jointset/hip_r/hip_flexion_r/accel	/jointset/hip_r/hip_adduction_r/accel	/jointset/hip_r/hip_rotation_r/accel	/jointset/back/lumbar_extension/accel	/jointset/patellofemoral_r/patellar_flexion_r/accel	/jointset/knee_r/knee_flexion_r/accel	/jointset/knee_r/knee_adduction_r/accel	/jointset/knee_r/knee_rotation_r/accel	/jointset/ankle_r/ankle_angle_r/accel	/jointset/subtalar_r/subtalar_angle_r/accel	gamma_cid13_p0	gamma_cid14_p0	gamma_cid14_p1	gamma_cid14_p2	gamma_cid14_p3	gamma_cid14_p4	gamma_cid14_p5
0	0.01051327053877235	0.1222519182600727	0.9365458133847829	0.1934211968871041	-0.0746751867806755	-0.002816866693412729	-0.2903787966825928	0.2311786273363406	0.2311786273363406	-0.1644108434782316	-0.1687304078662069	0.089344008118978	0.2536599954918276	0	0	0	0	0	0	0	0	0	0	0	0	0	0.01916897937613188	0.05092877315527895	0.04322508641212522	-0.1583895687405958	0.07043452830640026	-0.03190645129687396	0.06202394826892528	-28.07596130183064	-27.57946369846279	-26.73873716357217	13.88305464028181	-3.939550757611461	-661.0775031059801	30.46030834863295	0.3476709985057969	0.08650914611062553	0.00974810087371287	-0.3335758048226863	-0.01205340210067092	-0.1030759927296795	-0.2540029564150823	0.2795207094669706	0.2795207094669705	-0.01498244803204302	0.06635597731454007	0.2983589240762283	0.1221956333438313	-1.517017277460249e-09	-4.772859569550646e-09	1.666432385608328e-09	-1.222008247318266e-09	1.150104053635164e-09	-9.627943145453168e-09	3.638090227106134e-09
0.01	0.01052665595233238	0.1222585612601554	0.9365461679046297	0.1934052859156085	-0.07467655495401267	-0.002825820289208102	-0.2903942171669495	0.2311903025674731	0.2311903025674731	-0.1644105123572009	-0.1687234510339559	0.08936072960209687	0.2536660061364081	0.002285071151716879	0.001560965286896331	5.784753832002901e-05	-0.003113046579919686	-0.0003460586244822978	-0.002141732262386111	-0.003364689953847578	0.002114986405620584	0.00211498640562034	0.0001686305231399498	0.001722824692750253	0.003527701386538485	0.001198465849153418	0.03841423264665179	0.04759195479307864	0.05153927660444822	-0.1953829142273538	0.1211783281056938	-0.02597543702157212	0.04887113833876637	-28.07604016512595	-10.99674426090851	-25.01136812908263	17.89333368062169	-16.96831084034355	-661.4405642084421	32.86390332838943	0.1101229672536984	0.2257452405542664	0.001842690066288193	-0.2897975665147532	-0.05674574809333266	-0.3223739567286747	-0.4197909772446041	0.1444789363825182	0.1444789363824936	0.04814692765349975	0.2749644552191902	0.4074855830677313	0.1181228306687506	1.963920091333778e-10	-1.41284960247336e-10	4.356614202865326e-09	-1.318224051814602e-09	-2.434895114996907e-10	-3.963601637739128e-09	5.258855847570894e-09
0.02	0.01055113163615938	0.122287784917222	0.9365467088218107	0.1933603187819261	-0.07468355644468889	-0.002866721630374456	-0.2904517023433197	0.2312165259287164	0.2312165259287164	-0.1644054227059055	-0.1686893222067847	0.08941823006650616	0.2536838915934735	0.002218054053396414	0.004516131396797392	3.727946684556867e-05	-0.005811232437365134	-0.001126663467817536	-0.006389549074195134	-0.008412938402695427	0.002909626022157813	0.00290962602215781	0.0009517060529393234	0.005434398984057395	0.008155796258075701	0.002374962497010363	0.0576594859171716	0.04425513643087828	0.05985346679677106	-0.2323762597141118	0.1719221279049874	-0.02004442274627032	0.03571832840860741	-28.07587312075786	5.588568750332543	-23.28302618897148	21.90286494687603	-30.01787983217064	-661.7752042220154	35.26678876457733	-0.1227466515016716	0.3653493107115712	-0.005935021085184988	-0.2506036603278384	-0.09896264587125893	-0.5242929026142625	-0.5907146554151368	0.01545135165029982	0.01545135165039674	0.1079065532998416	0.4641058970259177	0.5184376210759742	0.1178017930845364	1.909801295727004e-09	4.490289649055974e-09	7.046796020122322e-09	-1.414439856310938e-09	-1.637083076634545e-09	1.700739869974912e-09	6.879621468035653e-09
0.03	0.01056863564072023	0.1223508728913549	0.936546893357279	0.1932883492123074	-0.07469933508333286	-0.002954943869004035	-0.2905648952713956	0.2312465666130132	0.2312465666130133	-0.1643911716470827	-0.1686138928013008	0.0895252746383447	0.2537138632592257	0.001442975200346777	0.008068326960466563	1.178235157261521e-05	-0.008735184235483313	-0.00198078773557081	-0.01103743842655654	-0.01419470265291006	0.003116588418540216	0.003116588418540329	0.001826129397929827	0.009406701851196693	0.01320907412356557	0.003657911542016315	0.05317198569495091	0.04372673441047671	0.05804127555091455	-0.2241986739692123	0.1604443386210291	-0.02035533625727147	0.03888216009721251	-28.07500576433686	1.949752636877389	-23.21413889827127	20.93120388246476	-27.35493248311466	-661.7545991189859	35.71280196885102	-0.03085357169390809	0.3451838757463402	0.0009665149988515118	-0.3361656171923608	-0.07139580727625197	-0.4024183141931497	-0.5672656258882089	0.02602993194873818	0.02602993194871323	0.06635443019244133	0.3270749359431402	0.4921667820500694	0.1393234292822153	4.573975025038843e-10	1.15695074488185e-09	-1.743331611562903e-09	1.724685358904267e-09	-1.078008974620695e-11	2.465651919778407e-09	-2.759041421815975e-09
